# xmcd
#
# Track frame offsets: 
#        150
#        3081
#        28057
#        52038
#        53801
#        81073
#        99305
#        115200
#        119412
#        147966
#        166165
#        193699
#        209704
#        225737
#        250639
#
# Disc length: 3660 seconds
#
# Revision: 1
# Processed by: cddbd v1.5.2PL0 Copyright (c) Steve Scherf et al.
# Submitted via: ExactAudioCopy v0.99pb5
#
DISCID=c60e4a0f
DTITLE=Brian Jackson - Gotta Play
DYEAR=1900
DGENRE=Roberts Musiic Group
TTITLE0=Intro
TTITLE1=Brian Jackson Feat. Roy Ayers Gotta Play
TTITLE2=Kama Sutra
TTITLE3=Interlude#1 - My Idea
TTITLE4=Moody Too
TTITLE5=Feelin' U (Radio Edit)
TTITLE6=Free 4 Fall
TTITLE7=Interlude #2 - Old School Conversation
TTITLE8=Brian Jackson Feat. Gil Scott-Heron  Parallel Lean
TTITLE9=Yada Yada
TTITLE10=Brian Jackson Feat. Roy Ayres 
TTITLE11=Deelusions
TTITLE12=Mum's Interlude
TTITLE13=Fresca Girl
TTITLE14=Feelin' U (Long Version)
EXTD=
EXTT0=
EXTT1=
EXTT2=
EXTT3=
EXTT4=
EXTT5=
EXTT6=
EXTT7=
EXTT8=
EXTT9=
EXTT10=
EXTT11=
EXTT12=
EXTT13=
EXTT14=
PLAYORDER=
